# xmcd
#
# Track frame offsets: 
#        150
#        10623
#        27455
#        49615
#        68007
#        86007
#        108063
#        123967
#        142103
#        162439
#        179519
#        195039
#
# Disc length: 2832 seconds
#
# Revision: 0
# Processed by: cddbd v1.5.1PL0 Copyright (c) Steve Scherf et al.
# Submitted via: ExactAudioCopy v0.95a5
#
DISCID=930b0e0c
DTITLE=Jeff Cook and the Alabama Goodtime Band - "On Fire"
DYEAR=2004
DGENRE=Country
TTITLE0=I Can't Trust Me (in your arms anymore)
TTITLE1=New Orleans Lady
TTITLE2=Modern Day Bonnie And Clyde
TTITLE3=Make-Up and Faded Blue Jeans
TTITLE4=If I Didn't Have You
TTITLE5=Deep River Woman
TTITLE6=Alabama Moon
TTITLE7=Who Will The Next Fool Be
TTITLE8=Some Kind Of Wonderful
TTITLE9=Wake-Up Call
TTITLE10=Threw Away The Rose
TTITLE11=So Little Time
EXTD=
EXTT0=
EXTT1=
EXTT2=
EXTT3=
EXTT4=
EXTT5=
EXTT6=
EXTT7=
EXTT8=
EXTT9=
EXTT10=
EXTT11=
PLAYORDER=
